<svg width="1174" height="421" viewBox="0 0 1174 421" fill="none" xmlns="http://www.w3.org/2000/svg">
<path d="M517.755 0.0665121C522.904 -0.0140064 528.455 0.157832 533.673 0.138438L584.943 0.0299346L608.932 0.00734944C616.299 0.00391267 624.088 -0.124228 631.371 0.846658C641.452 2.25254 651.135 5.14384 659.946 9.37916C674.419 16.3091 683.47 24.1923 691.844 35.9004C710.181 61.5357 704.106 100.231 677.059 120.36C674.995 121.927 672.839 123.413 670.601 124.813C668.579 126.056 660.653 130.014 659.841 131.133C659.799 133.36 671.506 143.399 673.928 145.689L708.595 178.073C712.606 181.858 720.326 188.649 723.554 192.456C718.8 191.467 710.656 191.852 705.382 191.868C697.249 191.87 689.116 191.921 680.985 192.022C676.81 192.077 670.758 192.36 666.825 191.536C663.332 188.776 660.339 185.478 657.171 182.461C651.555 177.111 615.013 141.502 611.148 140.268C606.806 138.883 598.392 139.275 593.374 138.703C585.946 137.855 578.424 136.487 571.06 135.276C560.783 133.586 551.073 130.373 541.018 128.079C535.945 127.021 531.149 125.601 525.825 124.645C514.302 122.576 502.2 121.383 490.347 121.186C479.138 121.001 466.464 123.154 457.54 129.086C455.066 130.73 453.07 133.571 450.642 135.517L450.451 135.412C450.445 135.238 450.448 135.063 450.459 134.889C450.73 130.797 456.292 120.574 459.754 116.947C495.614 79.4494 559.628 105.065 607.356 104.969C612.156 104.989 617.521 105.408 622.278 104.946C657.432 101.529 673.172 67.1639 649.147 45.7467C634.291 32.5034 616.207 34.6845 596.48 34.5279C587.587 34.4575 579.071 34.5871 570.335 34.2891C571.369 37.9914 573.121 41.1781 573.662 45.0712C574.185 48.8361 574.06 52.374 574.063 56.1552C574.05 62.3254 574.093 68.4954 574.191 74.6649C574.215 77.528 573.996 80.8825 574.279 83.6741C561.862 82.4614 544.169 79.2088 532.479 79.3411C531.325 61.1525 532.772 42.8478 531.835 24.6499C531.471 17.5844 528.203 10.8444 523.039 5.20693C522.066 4.14497 518.1 0.929876 517.755 0.0665121Z" fill="white"/>
<path d="M164.549 250.998C167.977 250.681 174.598 250.852 178.252 250.899C180.377 250.927 181.571 251.721 182.808 253.016C183.372 256.074 183.115 265.831 183.114 269.365L183.197 306.272C183.178 313.549 183.098 320.839 183.255 328.111C183.297 330.083 183.787 332.588 186.632 332.903C190.379 333.318 193.641 331.257 196.488 329.621C193.602 324.148 192.525 317.613 193.088 311.71C193.958 302.297 199.378 293.54 208.172 287.34C224.188 276.254 250.776 276.932 264.652 290.087C267.552 292.835 271.777 297.578 271.725 301.309C271.665 302.934 269.451 304.171 267.929 305.009C255.151 312.049 242.602 319.334 229.904 326.467C227.61 327.756 225.246 328.939 223.099 330.381C225.825 331.807 228.203 332.61 231.439 333.171C251.007 336.57 265.601 320.574 274.515 308.833C275.628 307.367 278.263 303.632 278.135 302.061C276.33 280.118 309.291 274.613 328.39 283.889C330.381 284.856 332.867 286.036 333.757 287.963C334.795 290.876 327.075 298.316 324.089 299.795C322.952 300.358 320.173 298.46 319.361 297.954C314.962 295.041 309.276 293.342 303.667 294.883C300.312 295.768 298.363 298.35 299.754 301.194C300.22 302.147 301.027 302.965 302.069 303.545C304.807 305.067 315.594 307.621 319.641 309.166C328.458 312.532 332.104 314.798 335.704 322.18C339.036 316.971 342.499 312.553 344.055 306.507C344.348 305.358 344.246 302.824 344.11 301.622C343.722 298.203 344.712 294.491 346.614 291.403C349.666 286.443 355.405 282.757 361.927 281.09C371.169 278.729 382.779 279.099 391.525 282.669C394.218 283.769 398.828 285.934 399.9 288.383C400.17 288.997 399.69 290.422 399.106 290.987C397.029 292.991 392.856 298.986 390.056 299.696C387.523 300.34 384.628 297.181 382.456 296.169C379.048 294.583 374.512 293.926 370.669 294.608C368.756 294.948 367.119 295.704 366.09 297.033C365.317 298.022 365.011 299.641 365.469 300.757C366.43 303.043 369.385 304.373 372.036 305.123C378.163 306.854 384.235 308.35 389.935 310.923C395.764 313.552 399.617 317.059 401.409 322.307C403.47 320.064 407.03 314.69 407.491 311.911C409.718 298.525 416.657 288.266 432.586 282.315C461.641 273.534 489.075 286.906 492.109 311.854C492.515 315.193 492.436 318.487 492.384 321.835C492.266 329.54 492.465 337.249 492.378 344.949C492.248 347.391 490.498 348.611 487.595 348.613C473.741 348.622 472.698 350.244 471.729 338.447C464.895 349.41 447.451 351.47 434.281 347.753C424.256 344.924 416.693 338.78 412.099 331.152C407.847 336.052 402.524 340.575 396.295 343.853C386.323 349.101 373.791 350.761 362.168 348.753C357.22 347.899 346.954 344.679 344.262 341.187C343.722 340.488 343.56 339.751 343.801 338.943C344.18 337.653 351.468 329.311 352.953 328.599C353.359 328.405 353.6 328.29 354.066 328.411C356.222 328.968 358.509 330.8 360.353 331.862C362.491 333.093 365.053 334.074 367.591 334.612C370.724 335.276 375.187 335.553 378.087 334.131C380.345 333.023 381.042 331.451 381.6 329.485C381.149 327.994 380.319 326.365 378.682 325.551C371.059 321.754 362.449 321.072 354.826 316.805C349.168 331.158 334.918 345.704 315.803 348.789C303.843 350.471 292.301 349.415 282.001 343.897C274.19 339.953 279.298 336.932 282.693 332.784C288.05 326.238 288.215 328.05 294.724 331.966C298.331 334.037 304.099 335.843 308.466 334.997C319.345 332.889 316.419 325.501 307.046 323.266C300.911 321.803 293.268 319.186 288.029 316.53C284.443 322.057 281.124 326.404 276.506 331.445C259.285 350.246 230.291 356.151 206.499 340.978C203.247 343.661 201.121 344.93 197.094 346.773C187.488 351.169 170.152 350.821 164.562 341.887C162.823 339.088 161.772 336.043 161.466 332.92C161.121 329.58 161.268 325.031 161.268 321.614L161.274 302.838L161.291 273.787C161.277 267.762 160.917 259.025 161.69 252.84C161.781 252.114 163.711 251.318 164.549 250.998ZM451.027 333.017C452.536 332.89 453.995 332.778 455.467 332.451C472.669 328.633 475.328 308.407 462.377 299.828C458.529 297.28 454.542 296.53 449.72 296.426C444.057 296.789 439.161 298.069 435.417 301.735C423.939 312.976 430.409 333.72 451.027 333.017ZM223.379 313.384C230.665 309.374 240.303 304.27 247.143 300.016C243.05 296.243 237.564 295.352 231.662 295.764C225.757 296.859 221.208 298.78 217.899 303.086C214.04 308.109 214.152 312.961 214.303 318.604C217.421 317.026 220.285 315.046 223.379 313.384Z" fill="white"/>
<path d="M105.528 279.678C114.302 279.234 123.032 280.994 130.525 284.716C140.131 289.561 146.44 297.38 148.987 306.239C149.632 308.522 150.034 310.847 150.189 313.186C150.291 314.664 150.289 316.165 150.29 317.644C150.297 325.255 150.32 332.924 150.362 340.532C150.37 342.068 150.494 346.548 149.354 347.432C146.947 349.297 135.395 349.065 132.155 347.86C130.448 347 129.659 341.152 129.407 339.509C128.651 339.443 128.093 340.383 127.731 340.887C125.97 343.335 122.369 345.296 119.374 346.713C115.988 348.146 112.292 349.036 108.49 349.336C98.39 350.148 88.3086 347.659 80.4873 342.423C59.0297 327.853 60.4964 298.595 83.39 285.536C90.4917 281.485 97.0819 280.282 105.528 279.678ZM108.865 333.066C111.768 332.8 113.965 332.577 116.631 331.491C135.681 323.732 130.653 295.928 107.221 296.425C95.8646 297.184 88.4998 303.716 87.6747 312.774C86.6552 323.968 94.0663 332.795 108.865 333.066Z" fill="white"/>
<path d="M4.05733 256.099C8.1921 255.906 14.0667 256.044 18.3068 256.043L44.7195 256.043L66.4501 256.065C70.0291 256.082 73.6343 256.055 77.205 256.216C79.8554 256.336 80.8403 258.658 80.791 260.502C80.4573 272.996 83.1593 272.916 67.478 272.848C62.3375 272.806 57.1964 272.824 52.0565 272.903C52.2432 279.417 52.0242 286.772 51.9986 293.349L51.9821 328.379L52.0599 339.301C52.0722 341.409 52.1772 343.734 51.8765 345.832C51.7749 346.543 51.46 346.838 50.9722 347.404C50.5026 348.002 48.7907 348.655 47.9224 348.581C44.4625 348.284 30.734 349.92 29.5874 346.902C28.5823 344.255 28.9043 337.948 28.9053 335L28.9119 318.514L28.9588 272.915C20.387 272.259 11.2102 273.626 2.79122 272.539C-0.91262 272.061 0.152572 264.954 0.112127 262.785C0.0515121 259.534 -0.333423 257.224 4.05733 256.099Z" fill="white"/>
<path d="M951.699 278.82C955.22 278.653 958.806 278.64 962.288 279.113C978.796 281.357 979.354 290.66 979.325 301.018L979.275 314.383C979.275 318.395 979.197 323.025 982.439 326.429C984.391 328.481 987.315 329.486 990.568 329.84C994.34 330.251 998.229 329.666 1001.26 327.876C1003.57 326.52 1004.59 324.514 1005.21 322.422C1006.28 318.864 1006.05 315.144 1006.05 311.523L1006 293.692C1005.97 290.395 1005.59 286.892 1006.12 283.625C1006.27 282.709 1006.36 281.85 1007.43 281.276C1010.4 279.679 1019.62 279.998 1023.24 280.477C1024.4 280.631 1026.17 280.948 1026.85 281.74C1027.29 282.257 1027.4 282.808 1027.45 283.408C1027.86 288.374 1027.39 293.621 1027.4 298.624C1027.41 305.976 1027.81 313.454 1027.3 320.789C1027.12 323.23 1026.68 325.554 1025.89 327.924C1029 326.856 1032.09 325.766 1035.17 324.652C1032.88 319.285 1032.28 313.046 1033.34 307.473C1034.94 299.064 1040.75 290.735 1049.89 285.629C1058.71 280.694 1069.98 278.953 1080.78 280.16C1090.11 281.204 1099.26 285.084 1104.86 290.867C1107.01 293.082 1110.81 297.581 1110.12 300.395C1109.94 301.149 1109.42 301.658 1108.68 302.163C1103.13 305.961 1096.31 309.07 1090.23 312.389C1080.92 317.478 1071.81 322.796 1062.32 327.703C1068.55 330.732 1076.57 332.144 1083.73 329.923C1098.09 325.468 1109.68 312.655 1115.6 302.34C1116.86 300.15 1115.55 293.357 1118.36 290.716C1125.88 278.813 1148.1 277.435 1162.29 282.568C1165.36 283.768 1173.23 286.918 1170.43 290.19C1168.29 292.696 1165.99 295.11 1163.55 297.449C1160.28 300.589 1156.6 297.108 1153.46 295.695C1151.11 294.522 1145.74 293.05 1142.85 293.825C1133.94 296.218 1134.21 301.224 1142.77 303.703C1154.42 307.078 1168.74 309.659 1172.82 319.698C1174.93 324.878 1174.18 331.177 1170.78 335.95C1161.55 348.215 1137.79 348.624 1122.96 342.477C1117.94 340.398 1112.71 337.983 1116.94 333.859C1118.36 332.477 1122.54 326.665 1124.63 326.216C1127.53 326.17 1131.47 328.989 1133.75 330.189C1138.51 332.702 1148.14 333.988 1151.82 329.419C1152.59 328.465 1152.83 327.317 1152.46 326.233C1150.81 321.301 1140.03 320.126 1134.48 318.231C1130.75 316.956 1129.24 316.415 1125.52 314.795L1123.5 318.033C1112.09 333.663 1097.02 347.326 1071.12 346.087C1060.63 345.643 1050.84 342.034 1043.93 336.077C1039.63 337.607 1035.99 339.392 1031.25 340.875C1017.73 345.106 1002.39 347.138 987.787 346.089C981.942 345.67 975.025 343.976 970.413 341.262C958.477 334.234 957.966 324.585 957.959 314.24C957.952 310.525 957.97 306.81 958.009 303.096C958.052 301.011 958.745 296.375 956.65 295.21C947.345 290.04 949.247 305.17 949.247 307.235L949.34 328.706C949.415 340.512 950.462 353.816 938.601 363.03C930.851 369.05 920.888 371.609 909.649 371.727C898.778 371.874 886.373 369.677 877.786 364.47C873.532 361.859 878.623 358.216 880.289 355.971C883.982 350.991 885.09 348.726 891.882 352.817C895.721 355.128 902.099 356.617 907.121 356.623C925.081 356.644 927.787 347.011 928.163 336.058C927.548 336.739 926.726 337.762 926.004 338.343C913.635 348.292 896.436 345.788 884.039 338.304C878.877 342.993 873.525 346.215 865.003 346.373C848.655 346.675 842.507 339.758 842.4 328.183C842.264 313.576 842.309 298.857 842.297 284.24C842.293 279.7 848.251 280.246 852.47 280.376C854.879 280.507 862.125 279.548 863.216 282C864.206 284.222 863.813 289.341 863.802 291.815L863.795 314.648C863.777 317.998 863.77 321.362 863.766 324.712C863.766 327.663 864.149 332.391 869.918 330.542C871.952 329.889 872.839 329.109 874.169 327.812C867.648 313.678 869.371 296.493 884.865 285.925C894.274 279.506 910.031 277.719 921.281 282.247C925.374 283.895 928.338 286.324 931.341 288.945C935.18 282.033 942.458 279.77 951.699 278.82ZM910.528 329.298C915.826 328.727 920.216 327.501 923.548 324.154C927.591 320.091 928.835 314.237 927.848 309.293C927.008 305.082 924.935 300.879 920.205 298.29C917.26 296.68 913.481 295.875 909.86 295.809C904.444 296.303 900.04 297.524 896.536 300.867C892.407 304.805 891.292 310.505 892.129 315.394C892.847 319.591 895.214 323.859 899.761 326.494C902.674 328.184 906.832 329.329 910.528 329.298ZM1053.84 316.257C1057.18 314.759 1060.22 312.862 1063.42 311.202C1070.84 307.177 1078.29 303.193 1085.79 299.249C1082.76 296.665 1079.6 295.307 1074.96 295.066C1073.6 294.996 1072.09 295.058 1070.75 295.206C1065.06 296.293 1060.29 298.284 1057.21 302.201C1053.72 306.64 1053.62 311.286 1053.84 316.257Z" fill="white"/>
<path d="M766.546 251.125C770.073 250.745 781.01 250.452 783.97 251.853C785.734 253.404 785.474 256.55 785.474 258.535C785.474 263.889 785.394 269.244 785.386 274.599L785.411 311.396C785.344 321.418 782.686 330.548 773.185 337.861C758.239 349.366 732.79 349.805 717.825 338C716.004 340.385 714.59 342.859 712.626 345.296C694.688 367.553 656.677 374.131 626.309 363.995C601.763 355.803 583.39 335.16 573.808 316.231C569.307 316.184 564.805 316.179 560.303 316.216C560.289 320.446 561.128 343.571 559.491 345.416C558.843 346.147 557.374 346.53 556.28 346.633C552.832 346.957 541.999 347.232 539.429 345.708C537.576 343.659 538.178 332.161 538.18 329.269L538.216 303.762L538.185 276.205C538.183 271.105 537.815 265.749 538.745 260.723C538.846 259.217 542.258 258.47 543.848 258.528C556.047 258.968 569.183 258.006 581.269 258.656C583.827 258.786 586.36 259.129 588.822 259.679C611.159 264.63 618.616 279.891 613.205 296.411C610.784 303.803 603.529 309.233 595.178 312.754C607.751 334.097 626.888 354.532 660.947 353.096C682.134 352.203 700.315 340.291 704.624 324.278C705.853 319.712 705.581 315.562 705.432 310.927C705.867 295.426 717.942 279.793 739.673 278.849C751.327 278.343 755.673 280.407 764.134 286.061C763.515 275.556 764.044 264.165 764.109 253.602C764.116 252.417 765.411 251.79 766.546 251.125ZM745.295 295.14C739.711 295.615 735.109 296.948 731.464 300.441C727.209 304.52 726.017 310.342 726.807 315.444C727.499 319.92 729.687 324.258 734.394 327.116C737.765 329.162 741.399 329.807 745.555 330.228C751.238 329.636 755.681 328.476 759.329 324.814C763.574 320.553 764.741 314.506 763.816 309.262C763.05 304.917 760.573 300.596 755.939 297.915C752.871 296.14 749.108 295.242 745.295 295.14ZM560.349 299.982C569.739 299.898 580.517 301.233 587.69 296.408C593.796 291.262 594.272 283.111 587.766 278.172C581.96 273.764 568.235 274.455 560.647 274.786L560.311 274.802C560.119 282.161 559.88 292.751 560.349 299.982Z" fill="white"/>
<path d="M654.563 278.886C678.655 277.062 700.205 289.999 702.77 307.825C705.334 325.65 687.946 341.656 663.875 343.628C639.663 345.611 617.885 332.648 615.306 314.718C612.727 296.788 630.329 280.721 654.563 278.886ZM659.451 328.572C665.634 327.884 670.635 326.612 674.541 322.721C678.619 318.659 680.05 313.01 678.997 308.078C678.058 303.675 675.177 299.287 670.171 296.664C666.864 294.932 663.102 294.268 659.114 294.078C652.897 294.563 647.812 295.79 643.771 299.556C639.643 303.403 638.079 308.683 638.88 313.51C639.618 317.952 642.119 322.54 646.971 325.369C650.706 327.546 654.875 328.153 659.451 328.572Z" fill="white"/>
<path d="M832.973 278.738C833.031 278.735 833.088 278.73 833.145 278.728C834.516 278.686 836.02 278.699 837.052 279.443C839.449 281.173 838.412 284.927 838.393 287.13C838.379 288.686 838.558 290.24 838.554 291.797C838.552 292.753 838.654 294.238 837.925 295.073C836.661 296.522 827.377 296.178 822.344 299.964C819.969 301.75 818.484 304.04 817.683 306.452C816.083 311.269 816.6 316.521 816.618 321.441L816.76 340.936C816.765 341.984 816.653 343.418 815.518 344.162C812.697 346.015 804.211 345.207 800.425 345.179C799.191 345.184 797.355 345.06 796.386 344.473C795.274 343.8 795.108 342.586 794.968 341.595C794.266 336.62 794.939 331.206 794.968 326.185C795.042 313.285 793.041 299.344 804.984 288.65C812.046 282.326 822.182 279.533 832.973 278.738Z" fill="white"/>
<path d="M36.458 371.71C40.0205 371.651 43.8914 371.698 47.4758 371.703C47.4156 375.422 47.4182 379.141 47.4835 382.86C40.9393 385.868 38.0575 388.627 35.8994 393.279C35.2625 392.239 34.6714 391.371 33.5303 390.467C31.6597 388.994 28.8378 388.004 25.6847 387.715C22.4778 387.411 19.1904 387.85 16.5558 388.934C10.6058 391.389 9.49847 396.687 13.8285 399.993C15.7377 401.453 18.5847 402.425 21.7484 402.696C24.4407 402.918 26.8992 402.75 29.3207 401.984C36.8603 399.566 37.4061 394.12 40.7625 389.985C45.6909 383.912 55.8297 380.665 67.6539 381.675C73.4828 382.183 78.7237 383.979 82.2368 386.674C86.4203 389.909 87.5845 393.604 86.5331 397.524C82.7668 397.632 77.8037 397.548 73.9504 397.546L51.7578 397.546C51.9223 397.862 52.0857 398.197 52.287 398.504C55.1189 402.82 64.7277 404.145 71.3301 401.795C72.8158 401.266 73.6324 400.843 74.8985 400.149C76.517 400.903 78.1456 401.65 79.7843 402.39C80.6094 402.815 82.3159 403.524 83.2511 403.94C77.6692 407.75 69.0465 409.475 60.529 408.813C54.8361 408.371 48.6895 406.463 45.1941 403.871C47.43 402.008 48.7398 400.248 49.9859 398.098C51.1471 396.095 51.9967 394.247 53.874 392.409C60.9927 392.352 68.2694 392.418 75.4175 392.391C75.394 392.336 75.3697 392.28 75.3445 392.224C74.5931 390.558 72.7086 389.129 70.1057 388.252C67.0701 387.244 63.1486 387.067 59.7877 387.585C51.0551 388.933 49.4804 394.385 46.8938 398.527C46.113 399.769 45.1378 400.968 43.98 402.11C40.8748 405.168 35.7055 407.651 29.6269 408.516C8.11729 411.577 -7.37801 398.508 3.64973 387.905C6.7462 384.962 11.741 382.823 17.5698 381.944C24.3873 380.954 30.5049 381.634 36.4556 383.65C36.4189 379.696 36.3842 375.662 36.458 371.71Z" fill="white"/>
<path d="M173.745 393.152C173.205 391.801 172.039 390.561 170.373 389.565C168.179 388.257 165.177 387.51 162.03 387.489C158.824 387.449 155.725 388.156 153.429 389.454C145.525 393.982 149.922 402.89 161.93 402.764C173.086 402.647 174.76 395.595 177.861 390.865C179.169 388.871 181.31 386.824 183.917 385.31C192.049 380.452 207.534 379.75 216.049 384.664C222.389 388.323 221.669 393.27 221.644 398.047L221.647 408.488C218.045 408.523 214.26 408.492 210.644 408.49C210.478 407.19 210.557 405.467 210.56 404.129L210.569 396.931C210.569 393.995 211.23 390.785 206.855 388.749C204.585 387.692 201.582 387.295 198.726 387.484C188.782 388.141 187.203 394.627 184.386 399.039C181.188 404.133 174.235 408.331 164.549 408.883C157.985 409.258 152.204 408.456 147.031 406.007C142.112 403.671 139.02 400.288 138.445 396.617C137.818 392.949 139.774 389.014 143.847 386.173C148.188 383.145 153.394 381.727 160.046 381.356C167.72 381.124 174.327 382.621 179.399 386.023C176.71 388.252 175.16 390.582 173.745 393.152Z" fill="white"/>
<path d="M102.999 381.371C107.981 381.1 113.778 381.663 118.023 383.195C119.398 383.691 122.559 385.075 122.914 385.963C122.761 386.347 116.298 389.005 115.131 389.506C112.363 387.85 110.216 386.959 105.932 386.802C103.21 386.677 98.7147 387.35 98.6944 389.24C98.6723 391.305 103.547 391.804 106.334 392.072C107.936 392.227 109.592 392.443 111.171 392.646C118.415 393.586 124.237 395.952 124.138 400.478C124.09 402.699 122.942 404.557 120.075 406.129C115.631 408.565 109.97 408.971 104.098 408.971C96.2357 408.755 89.3947 407.273 85.124 403.349C87.123 402.334 90.7696 400.862 93.0025 399.905C96.6714 402.197 100.416 403.644 106.166 403.437C108.969 403.389 113.109 402.485 112.621 400.504C111.985 397.921 103.012 397.813 99.42 397.217C93.3655 396.339 87.9771 394.251 87.4021 390.42C86.5509 384.749 93.9759 381.879 102.999 381.371Z" fill="white"/>
<path d="M186.034 400.552C186.396 401.431 186.091 407.137 185.965 408.231C185.202 414.824 176.455 420.407 164.961 420.938C156.577 421.325 149.439 419.915 144.136 416.15C143.154 415.401 142.575 414.826 141.87 413.989C144.986 413.059 148.294 411.958 151.413 411.096C151.651 411.303 151.89 411.509 152.132 411.713C154.058 413.331 156.68 414.399 160.03 414.747C163.358 415.102 166.794 414.674 169.581 413.558C173.032 412.147 174.315 410.358 175.008 408.034C180.829 405.719 182.79 404.084 186.034 400.552Z" fill="white"/>
<path d="M125.989 382.513L136.507 382.51C136.585 384.845 136.478 387.302 136.472 389.652L136.549 397.432C136.539 401.225 136.453 404.903 136.552 408.716L136.409 408.862C135.143 409.061 127.737 408.929 125.995 408.93C125.941 407.944 125.963 406.9 125.977 405.909C126.095 398.124 125.77 390.294 125.989 382.513Z" fill="white"/>
<path d="M129.962 371.74C133.806 371.383 137.493 372.676 138.207 374.63C138.921 376.584 136.393 378.464 132.554 378.834C128.697 379.206 124.979 377.913 124.262 375.949C123.543 373.985 126.1 372.098 129.962 371.74Z" fill="white"/>
</svg>
