<svg width="207" height="38" viewBox="0 0 207 38" fill="none" xmlns="http://www.w3.org/2000/svg">
<path d="M6.75387 5.35935C7.27049 5.34793 7.82753 5.37231 8.35112 5.36956L13.4958 5.35416L15.903 5.35096C16.6421 5.35047 17.4238 5.33228 18.1546 5.47007C19.1661 5.66959 20.1377 6.07991 21.0219 6.68097C22.4742 7.66444 23.3823 8.78319 24.2227 10.4448C26.0627 14.0828 25.453 19.5743 22.7391 22.4309C22.5319 22.6533 22.3157 22.8642 22.0911 23.0629C21.8881 23.2392 21.0928 23.801 21.0114 23.9598C21.0071 24.2758 22.1819 25.7005 22.4249 26.0255L25.9036 30.6213C26.306 31.1584 27.0806 32.1221 27.4046 32.6624C26.9276 32.5221 26.1104 32.5767 25.5812 32.579C24.765 32.5792 23.949 32.5866 23.133 32.6009C22.7141 32.6088 22.1068 32.6488 21.7121 32.532C21.3616 32.1402 21.0614 31.6722 20.7435 31.244C20.1799 30.4848 16.5131 25.4312 16.1253 25.2562C15.6896 25.0596 14.8453 25.1153 14.3417 25.034C13.5964 24.9138 12.8416 24.7196 12.1027 24.5477C11.0714 24.308 10.0971 23.852 9.08814 23.5264C8.57913 23.3761 8.09789 23.1747 7.56362 23.0391C6.40739 22.7454 5.19294 22.5761 4.0036 22.5482C2.87889 22.5218 1.60708 22.8274 0.711594 23.6692C0.463353 23.9026 0.263052 24.3058 0.0194304 24.582L0.000320742 24.567C-0.00028303 24.5423 -4.14919e-05 24.5175 0.00110567 24.4928C0.0282754 23.9121 0.586432 22.4613 0.933812 21.9465C4.53214 16.625 10.9555 20.2603 15.7448 20.2467C16.2265 20.2496 16.7648 20.309 17.2421 20.2434C20.7696 19.7585 22.349 14.8815 19.9383 11.8421C18.4476 9.96266 16.633 10.2722 14.6534 10.25C13.7611 10.24 12.9065 10.2584 12.0299 10.2161C12.1337 10.7415 12.3095 11.1937 12.3638 11.7462C12.4163 12.2805 12.4038 12.7826 12.4041 13.3192C12.4027 14.1949 12.407 15.0705 12.4168 15.946C12.4193 16.3524 12.3973 16.8284 12.4257 17.2246C11.1798 17.0525 9.40437 16.5909 8.2313 16.6097C8.11556 14.0284 8.2607 11.4307 8.16666 8.84813C8.13017 7.84542 7.8022 6.88891 7.28407 6.08886C7.18647 5.93815 6.78847 5.48188 6.75387 5.35935Z" fill="white"/>
<line y1="-1" x2="38.0001" y2="-1" transform="matrix(0.00346491 0.999994 -0.999995 0.00312289 37.5718 0.00622559)" stroke="white" stroke-width="2"/>
<path d="M70.1792 3.99756C70.6439 3.94157 71.5412 3.97174 72.0364 3.98013C72.3245 3.98501 72.4863 4.12544 72.654 4.35426C72.7304 4.89486 72.6957 6.61949 72.6955 7.24421L72.7068 13.768C72.7041 15.0543 72.6932 16.3429 72.7145 17.6283C72.7203 17.9769 72.7867 18.4197 73.1723 18.4754C73.6801 18.5486 74.1222 18.1845 74.5081 17.8952C74.117 16.9278 73.9711 15.7727 74.0473 14.7292C74.1653 13.0653 74.8999 11.5175 76.0917 10.4215C78.2626 8.46189 81.8663 8.58167 83.7471 10.907C84.1402 11.3928 84.7128 12.2312 84.7057 12.8907C84.6976 13.1779 84.3976 13.3965 84.1913 13.5447C82.4594 14.7891 80.7585 16.0768 79.0374 17.3377C78.7264 17.5656 78.406 17.7747 78.115 18.0295C78.4844 18.2817 78.8068 18.4235 79.2454 18.5227C81.8977 19.1236 83.8756 16.2961 85.0839 14.2207C85.2348 13.9614 85.5919 13.3013 85.5745 13.0237C85.3299 9.14499 89.7974 8.17183 92.3861 9.81153C92.6559 9.9824 92.9929 10.191 93.1136 10.5316C93.2542 11.0466 92.2078 12.3616 91.8031 12.6231C91.649 12.7227 91.2723 12.3871 91.1622 12.2977C90.5661 11.7828 89.7953 11.4824 89.0352 11.7548C88.5804 11.9112 88.3162 12.3677 88.5047 12.8704C88.5679 13.0388 88.6773 13.1835 88.8186 13.286C89.1896 13.5549 90.6517 14.0063 91.2002 14.2795C92.3953 14.8744 92.8895 15.275 93.3774 16.58C93.829 15.6592 94.2984 14.8782 94.5093 13.8094C94.549 13.6064 94.5352 13.1585 94.5167 12.946C94.4642 12.3416 94.5984 11.6854 94.8561 11.1396C95.2698 10.2629 96.0477 9.61139 96.9317 9.3168C98.1843 8.89939 99.7579 8.96471 100.943 9.59591C101.308 9.79036 101.933 10.1729 102.078 10.6059C102.115 10.7145 102.05 10.9663 101.971 11.0662C101.689 11.4205 101.124 12.48 100.744 12.6056C100.401 12.7193 100.009 12.161 99.7142 11.9822C99.2523 11.7017 98.6374 11.5856 98.1165 11.7063C97.8573 11.7663 97.6354 11.8999 97.4959 12.1348C97.3912 12.3097 97.3496 12.5959 97.4117 12.7932C97.542 13.1972 97.9425 13.4323 98.3018 13.5648C99.1323 13.8709 99.9553 14.1353 100.728 14.59C101.518 15.0548 102.04 15.6747 102.283 16.6023C102.562 16.2059 103.045 15.256 103.107 14.7648C103.409 12.3986 104.35 10.5852 106.509 9.53317C110.447 7.98106 114.165 10.3448 114.576 14.7547C114.631 15.3448 114.621 15.9271 114.614 16.5189C114.598 17.881 114.625 19.2435 114.613 20.6047C114.595 21.0363 114.358 21.252 113.965 21.2523C112.087 21.2538 111.946 21.5407 111.814 19.4553C110.888 21.3932 108.524 21.7572 106.738 21.1003C105.38 20.6003 104.355 19.5141 103.732 18.1658C103.156 19.032 102.434 19.8316 101.59 20.411C100.238 21.3385 98.5397 21.6319 96.9644 21.2771C96.2937 21.1261 94.9023 20.5569 94.5373 19.9397C94.4642 19.8161 94.4421 19.6858 94.4748 19.543C94.5263 19.315 95.514 17.8404 95.7153 17.7146C95.7704 17.6802 95.803 17.66 95.8662 17.6814C96.1584 17.7798 96.4684 18.1036 96.7183 18.2913C97.0081 18.5089 97.3553 18.6823 97.6993 18.7774C98.124 18.8947 98.729 18.9437 99.122 18.6924C99.4281 18.4966 99.5225 18.2187 99.5981 17.8713C99.537 17.6077 99.4245 17.3197 99.2026 17.1757C98.1694 16.5046 97.0024 16.384 95.9692 15.6297C95.2023 18.1669 93.2709 20.738 90.6801 21.2834C89.059 21.5807 87.4946 21.394 86.0986 20.4186C85.0398 19.7216 85.7322 19.1875 86.1923 18.4544C86.9184 17.2972 86.9408 17.6175 87.823 18.3097C88.3119 18.6758 89.0937 18.995 89.6856 18.8455C91.1601 18.4728 90.7635 17.167 89.4932 16.7719C88.6617 16.5133 87.6256 16.0506 86.9155 15.5812C86.4295 16.5582 85.9796 17.3266 85.3537 18.2177C83.0196 21.5409 79.0898 22.5847 75.865 19.9027C75.4243 20.3769 75.1362 20.6014 74.5903 20.9271C73.2884 21.704 70.9386 21.6425 70.1809 20.0633C69.9453 19.5686 69.8028 19.0304 69.7614 18.4783C69.7146 17.8879 69.7344 17.0838 69.7344 16.4799L69.7353 13.1609L69.7376 8.02573C69.7357 6.96086 69.6869 5.41647 69.7916 4.32315C69.804 4.19479 70.0656 4.05414 70.1792 3.99756ZM109.008 18.4955C109.213 18.473 109.411 18.4532 109.61 18.3954C111.942 17.7205 112.302 14.1454 110.547 12.629C110.025 12.1785 109.485 12.046 108.831 12.0275C108.063 12.0917 107.4 12.318 106.893 12.966C105.337 14.953 106.214 18.6197 109.008 18.4955ZM78.1529 15.0251C79.1404 14.3163 80.4468 13.414 81.3739 12.6622C80.8192 11.9952 80.0756 11.8378 79.2756 11.9105C78.4753 12.104 77.8587 12.4437 77.4102 13.2048C76.8871 14.0927 76.9024 14.9503 76.9228 15.9479C77.3455 15.6689 77.7336 15.3189 78.1529 15.0251Z" fill="white"/>
<path d="M62.1782 9.06681C63.3675 8.98841 64.5507 9.29945 65.5662 9.95745C66.8683 10.8137 67.7234 12.196 68.0686 13.7619C68.156 14.1655 68.2105 14.5763 68.2315 14.9897C68.2454 15.2512 68.2451 15.5165 68.2453 15.7778C68.2462 17.1232 68.2493 18.4787 68.2549 19.8235C68.2561 20.0951 68.2729 20.8871 68.1183 21.0433C67.7921 21.373 66.2263 21.332 65.7871 21.119C65.5558 20.9669 65.4489 19.9332 65.4147 19.6428C65.3122 19.6311 65.2367 19.7972 65.1875 19.8863C64.9489 20.3191 64.4608 20.6657 64.0548 20.9161C63.5959 21.1694 63.095 21.3269 62.5796 21.3798C61.2107 21.5232 59.8443 21.0833 58.7842 20.1579C55.8758 17.5824 56.0746 12.4107 59.1776 10.1023C60.1402 9.38618 61.0334 9.17356 62.1782 9.06681ZM62.6305 18.5038C63.0239 18.4568 63.3218 18.4175 63.6832 18.2255C66.2651 16.854 65.5836 11.9392 62.4077 12.027C60.8684 12.1613 59.8702 13.3159 59.7584 14.917C59.6202 16.8957 60.6247 18.456 62.6305 18.5038Z" fill="white"/>
<path d="M48.4269 4.8988C48.9873 4.86473 49.7835 4.88901 50.3582 4.88889L53.9382 4.88894L56.8836 4.89271C57.3687 4.89577 57.8573 4.89106 58.3413 4.91953C58.7005 4.94066 58.834 5.35119 58.8273 5.67704C58.7821 7.88559 59.1483 7.87146 57.0229 7.85936C56.3261 7.85194 55.6293 7.8552 54.9327 7.86922C54.958 9.02059 54.9283 10.3207 54.9248 11.4833L54.9226 17.6752L54.9331 19.6058C54.9348 19.9785 54.949 20.3895 54.9083 20.7603C54.8945 20.8859 54.8518 20.9381 54.7857 21.0381C54.722 21.1439 54.49 21.2593 54.3723 21.2461C53.9034 21.1938 52.0426 21.4829 51.8872 20.9494C51.751 20.4814 51.7946 19.3668 51.7948 18.8456L51.7957 15.9315L51.802 7.87124C50.6402 7.75531 49.3964 7.99687 48.2553 7.80486C47.7533 7.72038 47.8976 6.46399 47.8922 6.08068C47.8839 5.50605 47.8318 5.09764 48.4269 4.8988Z" fill="white"/>
<path d="M176.869 8.91589C177.347 8.88636 177.833 8.88398 178.305 8.96761C180.542 9.36421 180.618 11.0087 180.614 12.8397L180.607 15.202C180.607 15.9111 180.596 16.7296 181.036 17.3313C181.3 17.694 181.697 17.8716 182.138 17.9343C182.649 18.007 183.176 17.9034 183.587 17.5871C183.899 17.3474 184.037 16.9928 184.123 16.623C184.267 15.9941 184.236 15.3366 184.237 14.6965L184.229 11.5446C184.225 10.9619 184.174 10.3426 184.245 9.76523C184.266 9.6033 184.278 9.45132 184.423 9.35001C184.826 9.06763 186.075 9.12398 186.566 9.20875C186.723 9.23585 186.964 9.29191 187.055 9.43203C187.115 9.52328 187.13 9.62078 187.137 9.72675C187.192 10.6046 187.129 11.532 187.13 12.4165C187.131 13.716 187.185 15.0378 187.116 16.3343C187.092 16.7659 187.032 17.1766 186.925 17.5955C187.346 17.4069 187.766 17.2141 188.184 17.0171C187.872 16.0685 187.792 14.9658 187.935 13.9807C188.151 12.4942 188.94 11.0219 190.177 10.1194C191.374 9.24709 192.901 8.93928 194.364 9.15269C195.629 9.33716 196.869 10.023 197.629 11.0452C197.92 11.4368 198.435 12.2321 198.342 12.7294C198.317 12.8628 198.246 12.9527 198.146 13.042C197.394 13.7133 196.47 14.2628 195.646 14.8496C194.384 15.7491 193.149 16.6891 191.863 17.5564C192.707 18.0919 193.795 18.3415 194.765 17.9489C196.711 17.1614 198.282 14.8966 199.085 13.0732C199.256 12.6862 199.078 11.4855 199.459 11.0186C200.478 8.91461 203.489 8.67099 205.413 9.57824C205.828 9.79042 206.895 10.3472 206.516 10.9255C206.226 11.3686 205.914 11.7953 205.583 12.2087C205.14 12.7637 204.642 12.1485 204.216 11.8987C203.898 11.6914 203.169 11.4312 202.778 11.5681C201.57 11.9912 201.607 12.8761 202.767 13.3142C204.346 13.9109 206.287 14.367 206.84 16.1415C207.126 17.0572 207.025 18.1706 206.563 19.0143C205.313 21.1823 202.092 21.2545 200.082 20.168C199.402 19.8005 198.693 19.3736 199.266 18.6447C199.459 18.4003 200.025 17.3729 200.308 17.2937C200.701 17.2855 201.235 17.7838 201.544 17.996C202.19 18.4402 203.494 18.6674 203.994 17.8598C204.098 17.6912 204.13 17.4883 204.08 17.2967C203.857 16.4248 202.395 16.2172 201.644 15.8823C201.138 15.6569 200.933 15.5613 200.43 15.2748L200.156 15.8473C198.609 18.61 196.566 21.0251 193.055 20.8062C191.634 20.7276 190.306 20.0898 189.37 19.0367C188.787 19.3071 188.294 19.6227 187.652 19.8848C185.819 20.6328 183.739 20.9919 181.761 20.8065C180.968 20.7323 180.031 20.433 179.406 19.9532C177.788 18.7109 177.719 17.0053 177.718 15.1767C177.717 14.5201 177.719 13.8635 177.725 13.2069C177.73 12.8383 177.824 12.0188 177.54 11.813C176.279 10.8991 176.537 13.5735 176.537 13.9385L176.55 17.7338C176.56 19.8207 176.702 22.1723 175.094 23.801C174.044 24.8651 172.693 25.3174 171.17 25.3383C169.696 25.3644 168.015 24.976 166.851 24.0555C166.275 23.594 166.965 22.9501 167.19 22.5532C167.691 21.673 167.841 21.2726 168.762 21.9957C169.282 22.4042 170.147 22.6674 170.827 22.6684C173.262 22.6722 173.628 20.9695 173.679 19.0334C173.596 19.1537 173.484 19.3346 173.387 19.4373C171.71 21.1958 169.379 20.7532 167.699 19.4303C166.999 20.2593 166.274 20.8287 165.119 20.8566C162.903 20.9101 162.07 19.6874 162.055 17.6413C162.037 15.0593 162.043 12.4576 162.041 9.87382C162.04 9.07139 162.848 9.16794 163.42 9.19085C163.746 9.21409 164.729 9.04453 164.876 9.47789C165.011 9.87063 164.957 10.7755 164.956 11.2128L164.955 15.2489C164.952 15.841 164.951 16.4356 164.951 17.0278C164.951 17.5494 165.003 18.3852 165.785 18.0583C166.061 17.9429 166.181 17.8051 166.361 17.5758C165.477 15.0773 165.711 12.0397 167.811 10.1716C169.086 9.03705 171.222 8.72119 172.747 9.52152C173.301 9.81286 173.703 10.2422 174.11 10.7055C174.63 9.48366 175.617 9.08378 176.869 8.91589ZM171.289 17.8385C172.007 17.7376 172.602 17.5208 173.054 16.9291C173.602 16.2109 173.77 15.1762 173.637 14.3023C173.523 13.5579 173.242 12.815 172.601 12.3574C172.201 12.0728 171.689 11.9304 171.198 11.9188C170.464 12.0062 169.867 12.2219 169.393 12.8129C168.833 13.509 168.682 14.5165 168.795 15.3807C168.893 16.1225 169.213 16.8769 169.83 17.3429C170.225 17.6415 170.788 17.8439 171.289 17.8385ZM190.714 15.5333C191.167 15.2684 191.578 14.9331 192.012 14.6397C193.017 13.9282 194.028 13.224 195.044 12.527C194.633 12.0701 194.204 11.83 193.575 11.7876C193.391 11.7752 193.187 11.7861 193.005 11.8123C192.234 12.0044 191.588 12.3564 191.17 13.0488C190.697 13.8334 190.683 14.6545 190.714 15.5333Z" fill="white"/>
<path d="M151.773 4.02008C152.251 3.95284 153.733 3.90105 154.135 4.14873C154.374 4.42294 154.339 4.97904 154.339 5.32977C154.339 6.27615 154.328 7.22287 154.327 8.1693L154.33 14.6737C154.321 16.4453 153.961 18.0591 152.673 19.3518C150.647 21.3854 147.198 21.463 145.169 19.3763C144.923 19.7979 144.731 20.2352 144.465 20.6659C142.034 24.6002 136.881 25.763 132.765 23.9713C129.438 22.5232 126.948 18.8743 125.65 15.5284C125.039 15.5201 124.429 15.5192 123.819 15.5256C123.817 16.2733 123.931 20.3611 123.709 20.6872C123.621 20.8164 123.422 20.8841 123.274 20.9023C122.806 20.9596 121.338 21.0081 120.99 20.7388C120.739 20.3767 120.82 18.3442 120.82 17.8329L120.825 13.3242L120.821 8.45327C120.821 7.55174 120.771 6.60497 120.897 5.71651C120.911 5.45031 121.373 5.3184 121.589 5.32851C123.242 5.40634 125.023 5.2363 126.661 5.35115C127.007 5.37428 127.351 5.43491 127.685 5.53198C130.712 6.40714 131.723 9.10474 130.989 12.025C130.661 13.3315 129.678 14.2914 128.546 14.9138C130.25 18.6864 132.844 22.2986 137.46 22.0447C140.332 21.8868 142.796 19.7812 143.38 16.9508C143.547 16.1437 143.51 15.4101 143.49 14.5908C143.549 11.8508 145.185 9.0874 148.131 8.92061C149.71 8.83112 150.299 9.19599 151.446 10.1954C151.362 8.33847 151.434 6.32508 151.443 4.45792C151.444 4.24833 151.619 4.1376 151.773 4.02008ZM148.893 11.8002C148.136 11.8842 147.512 12.1199 147.018 12.7373C146.441 13.4583 146.28 14.4873 146.387 15.3892C146.481 16.1804 146.777 16.9473 147.415 17.4524C147.872 17.8141 148.365 17.9281 148.928 18.0025C149.698 17.8978 150.3 17.6928 150.795 17.0455C151.37 16.2924 151.528 15.2235 151.403 14.2964C151.299 13.5284 150.964 12.7646 150.335 12.2907C149.92 11.9769 149.41 11.8182 148.893 11.8002ZM123.825 12.6561C125.098 12.6413 126.559 12.8773 127.531 12.0244C128.359 11.1148 128.423 9.67391 127.541 8.80094C126.754 8.02184 124.894 8.14389 123.866 8.20248L123.82 8.2052C123.794 9.50596 123.762 11.3779 123.825 12.6561Z" fill="white"/>
<path d="M136.594 8.92752C139.859 8.60512 142.78 10.8918 143.128 14.0427C143.476 17.1936 141.119 20.0229 137.856 20.3714C134.575 20.722 131.623 18.4307 131.273 15.2612C130.924 12.0918 133.309 9.25188 136.594 8.92752ZM137.257 17.7102C138.095 17.5884 138.772 17.3637 139.302 16.6759C139.855 15.9579 140.049 14.9593 139.906 14.0875C139.779 13.3092 139.388 12.5336 138.71 12.07C138.261 11.7639 137.751 11.6465 137.211 11.6128C136.368 11.6986 135.679 11.9156 135.131 12.5812C134.572 13.2611 134.36 14.1945 134.468 15.0476C134.568 15.8329 134.907 16.644 135.565 17.144C136.071 17.5287 136.636 17.6361 137.257 17.7102Z" fill="white"/>
<path d="M160.778 8.90136C160.786 8.90079 160.793 8.89988 160.801 8.8996C160.987 8.89216 161.191 8.89436 161.331 9.02595C161.656 9.33173 161.515 9.99531 161.512 10.3847C161.511 10.6597 161.535 10.9345 161.534 11.2096C161.534 11.3786 161.548 11.6411 161.449 11.7887C161.278 12.0448 160.019 11.984 159.337 12.6533C159.015 12.9691 158.814 13.3737 158.705 13.8002C158.489 14.6516 158.559 15.58 158.561 16.4496L158.58 19.8955C158.581 20.0808 158.566 20.3343 158.412 20.4659C158.03 20.7934 156.879 20.6506 156.366 20.6457C156.199 20.6465 155.95 20.6245 155.819 20.5208C155.668 20.4019 155.646 20.1873 155.627 20.0121C155.532 19.1328 155.623 18.1758 155.627 17.2882C155.637 15.0079 155.366 12.5437 156.984 10.6533C157.941 9.53555 159.315 9.04177 160.778 8.90136Z" fill="white"/>
<path d="M52.7981 25.3447C53.2789 25.3344 53.8014 25.3426 54.2853 25.3434C54.2771 25.9895 54.2775 26.6356 54.2863 27.2817C53.403 27.8044 53.014 28.2836 52.7227 29.0918C52.6367 28.9112 52.5569 28.7603 52.4029 28.6032C52.1504 28.3473 51.7695 28.1754 51.3439 28.1251C50.911 28.0724 50.4673 28.1486 50.1117 28.3369C49.3085 28.7635 49.1591 29.6839 49.7435 30.2583C50.0012 30.512 50.3855 30.6808 50.8126 30.7278C51.176 30.7664 51.5078 30.7372 51.8347 30.6042C52.8524 30.184 52.926 29.2379 53.3791 28.5195C54.0443 27.4645 55.4129 26.9004 57.0089 27.0759C57.7957 27.1641 58.5031 27.4762 58.9773 27.9443C59.542 28.5063 59.6991 29.1484 59.5572 29.8293C59.0488 29.8481 58.3789 29.8335 57.8588 29.8331L54.8632 29.8331C54.8854 29.8881 54.9075 29.9462 54.9347 29.9995C55.3169 30.7493 56.6139 30.9796 57.5051 30.5713C57.7057 30.4794 57.8159 30.406 57.9868 30.2854C58.2052 30.4164 58.4251 30.5461 58.6463 30.6747C58.7576 30.7485 58.988 30.8718 59.1142 30.944C58.3608 31.6059 57.1969 31.9056 56.0472 31.7906C55.2788 31.7137 54.4491 31.3823 53.9773 30.9319C54.2791 30.6082 54.4559 30.3026 54.6241 29.9291C54.7808 29.581 54.8955 29.2601 55.1489 28.9407C56.1098 28.9308 57.092 28.9422 58.0568 28.9376C58.0537 28.9279 58.0504 28.9183 58.047 28.9086C57.9456 28.619 57.6912 28.3708 57.3398 28.2185C56.9301 28.0433 56.4008 28.0126 55.9471 28.1027C54.7684 28.3368 54.5558 29.2839 54.2067 30.0036C54.1013 30.2193 53.9697 30.4276 53.8134 30.626C53.3943 31.1572 52.6965 31.5887 51.876 31.739C48.9726 32.2707 46.8811 30.0003 48.3696 28.1583C48.7876 27.6469 49.4618 27.2753 50.2485 27.1226C51.1688 26.9505 51.9945 27.0687 52.7977 27.419C52.7928 26.732 52.7881 26.0312 52.7981 25.3447Z" fill="white"/>
<path d="M71.3988 29.0852C71.3252 28.8518 71.1662 28.6375 70.9391 28.4655C70.64 28.2396 70.2308 28.1106 69.8018 28.1069C69.3647 28.0999 68.9421 28.2222 68.6292 28.4463C67.5517 29.2285 68.1511 30.7673 69.7882 30.7456C71.3089 30.7254 71.5371 29.5072 71.9599 28.6901C72.1382 28.3456 72.4301 27.9921 72.7855 27.7304C73.8942 26.8913 76.0051 26.7701 77.1659 27.6189C78.0303 28.2509 77.9322 29.1055 77.9287 29.9306L77.9291 31.7343C77.438 31.7403 76.9221 31.7349 76.4292 31.7347C76.4065 31.5101 76.4172 31.2124 76.4176 30.9813L76.4189 29.738C76.4189 29.2307 76.5089 28.6762 75.9126 28.3245C75.6031 28.142 75.1937 28.0734 74.8043 28.106C73.4487 28.2195 73.2335 29.3398 72.8494 30.102C72.4134 30.982 71.4656 31.7071 70.1452 31.8025C69.2503 31.8672 68.4622 31.7287 67.757 31.3057C67.0864 30.9022 66.6648 30.3177 66.5865 29.6836C66.5009 29.0501 66.7677 28.3703 67.3229 27.8796C67.9147 27.3566 68.6245 27.1115 69.5313 27.0475C70.5775 27.0075 71.4781 27.266 72.1696 27.8536C71.803 28.2387 71.5917 28.6412 71.3988 29.0852Z" fill="white"/>
<path d="M61.8335 27.0503C62.4888 27.0024 63.2513 27.1018 63.8096 27.3723C63.9905 27.4599 64.4062 27.7045 64.4529 27.8611C64.4328 27.929 63.5827 28.3983 63.4293 28.4868C63.0651 28.1943 62.7828 28.037 62.2193 28.0093C61.8613 27.9873 61.27 28.1061 61.2673 28.4399C61.2644 28.8044 61.9056 28.8926 62.2722 28.94C62.4828 28.9672 62.7007 29.0055 62.9084 29.0413C63.8612 29.2072 64.627 29.625 64.6139 30.4243C64.6075 30.8163 64.4565 31.1445 64.0795 31.422C63.495 31.8522 62.7504 31.924 61.9781 31.9238C60.9439 31.8857 60.0441 31.6241 59.4824 30.9312C59.7453 30.752 60.225 30.492 60.5187 30.323C61.0012 30.7278 61.4938 30.9833 62.2501 30.9468C62.6187 30.9382 63.1633 30.7787 63.0991 30.4288C63.0154 29.9726 61.8352 29.9537 61.3628 29.8484C60.5664 29.6933 59.8577 29.3246 59.782 28.6482C59.6701 27.6468 60.6467 27.1401 61.8335 27.0503Z" fill="white"/>
<path d="M73.0233 30.4371C73.0722 30.5924 73.031 31.5999 73.014 31.7931C72.911 32.9573 71.7298 33.9432 70.1777 34.0369C69.0456 34.1053 68.0816 33.8562 67.3656 33.1914C67.233 33.0591 67.1548 32.9577 67.0596 32.8098C67.4803 32.6456 67.9271 32.4513 68.3482 32.299C68.3803 32.3355 68.4126 32.3719 68.4453 32.408C68.7054 32.6937 69.0594 32.8822 69.5118 32.9437C69.9612 33.0064 70.4252 32.9308 70.8015 32.7337C71.2676 32.4845 71.4408 32.1687 71.5344 31.7583C72.3205 31.3495 72.5853 31.0608 73.0233 30.4371Z" fill="white"/>
<path d="M64.873 27.1456L66.443 27.1449C66.4547 27.5573 66.4386 27.9911 66.4378 28.406L66.4493 29.7799C66.4477 30.4496 66.435 31.0992 66.4497 31.7724L66.4285 31.7982C66.2395 31.8334 65.1339 31.8101 64.8738 31.8102C64.8658 31.6362 64.8691 31.4517 64.8712 31.2768C64.8888 29.9021 64.8402 28.5195 64.873 27.1456Z" fill="white"/>
<path d="M65.4888 25.3499C65.9854 25.287 66.4617 25.5151 66.5539 25.8602C66.6462 26.2053 66.3196 26.5373 65.8236 26.6026C65.3254 26.6683 64.8451 26.4399 64.7525 26.0931C64.6596 25.7463 64.9899 25.4132 65.4888 25.3499Z" fill="white"/>
</svg>
