<svg xmlns="http://www.w3.org/2000/svg" viewBox="0 0 28 38">
  <style>
    path { fill: #09090A; }
    @media (prefers-color-scheme: dark) { path { fill: #F4F5F6; } }
  </style>
  <path d="M6.75387 5.35935C7.27049 5.34793 7.82753 5.37231 8.35112 5.36956L13.4958 5.35416L15.903 5.35096C16.6421 5.35047 17.4238 5.33228 18.1546 5.47007C19.1661 5.66959 20.1377 6.07991 21.0219 6.68097C22.4742 7.66444 23.3823 8.78319 24.2227 10.4448C26.0627 14.0828 25.453 19.5743 22.7391 22.4309C22.5319 22.6533 22.3157 22.8642 22.0911 23.0629C21.8881 23.2392 21.0928 23.801 21.0114 23.9598C21.0071 24.2758 22.1819 25.7005 22.4249 26.0255L25.9036 30.6213C26.306 31.1584 27.0806 32.1221 27.4046 32.6624C26.9276 32.5221 26.1104 32.5767 25.5812 32.579C24.765 32.5792 23.949 32.5866 23.133 32.6009C22.7141 32.6088 22.1068 32.6488 21.7121 32.532C21.3616 32.1402 21.0614 31.6722 20.7435 31.244C20.1799 30.4848 16.5131 25.4312 16.1253 25.2562C15.6896 25.0596 14.8453 25.1153 14.3417 25.034C13.5964 24.9138 12.8416 24.7196 12.1027 24.5477C11.0714 24.308 10.0971 23.852 9.08814 23.5264C8.57913 23.3761 8.09789 23.1747 7.56362 23.0391C6.40739 22.7454 5.19294 22.5761 4.0036 22.5482C2.87889 22.5218 1.60708 22.8274 0.711594 23.6692C0.463353 23.9026 0.263052 24.3058 0.0194304 24.582L0.000320742 24.567C-0.00028303 24.5423 -4.14919e-05 24.5175 0.00110567 24.4928C0.0282754 23.9121 0.586432 22.4613 0.933812 21.9465C4.53214 16.625 10.9555 20.2603 15.7448 20.2467C16.2265 20.2496 16.7648 20.309 17.2421 20.2434C20.7696 19.7585 22.349 14.8815 19.9383 11.8421C18.4476 9.96266 16.633 10.2722 14.6534 10.25C13.7611 10.24 12.9065 10.2584 12.0299 10.2161C12.1337 10.7415 12.3095 11.1937 12.3638 11.7462C12.4163 12.2805 12.4038 12.7826 12.4041 13.3192C12.4027 14.1949 12.407 15.0705 12.4168 15.946C12.4193 16.3524 12.3973 16.8284 12.4257 17.2246C11.1798 17.0525 9.40437 16.5909 8.2313 16.6097C8.11556 14.0284 8.2607 11.4307 8.16666 8.84813C8.13017 7.84542 7.8022 6.88891 7.28407 6.08886C7.18647 5.93815 6.78847 5.48188 6.75387 5.35935Z"/>
</svg>
