<svg width="26" height="16" viewBox="0 0 26 16" fill="white" xmlns="http://www.w3.org/2000/svg">
  <path d="M16.5 1.5h6.5v1.6h-6.5zM19.7 5.3c-3.5 0-5.4 2.4-5.4 5.5 0 3.2 2 5.2 5.4 5.2 2.7 0 4.4-1.2 5.2-3.7h-2.7c-.3.8-1.1 1.3-2.3 1.3-1.5 0-2.5-.9-2.6-2.6h7.8c0-.2.1-.5.1-.8-.1-2.9-1.7-4.9-5.5-4.9zm-2.4 4.2c.2-1.3 1-2 2.3-2 1.3 0 2.1.8 2.2 2h-4.5zM8.9 7.8c1.5-.4 2.4-1.4 2.4-3C11.3 2.1 9.4 1 6.7 1H0v14h7c2.9 0 5-.9 5-3.8-.1-1.7-.9-3-3.1-3.4zm-5.7-4.5h3c1 0 2 .3 2 1.6s-.9 1.7-2 1.7H3.2V3.3zm3.3 9.3H3.2V9.1h3.3c1.3 0 2.2.5 2.2 1.9 0 1.3-1.1 1.6-2.2 1.6z"/>
</svg>
