<svg width="45" height="45" viewBox="0 0 45 45" fill="none" xmlns="http://www.w3.org/2000/svg">
<rect width="45" height="45" rx="22.5" fill="white"/>
<path d="M20.6093 11.0292C20.889 11.1692 21.555 11.6324 21.8431 11.8203C22.6568 12.3425 23.4671 12.8699 24.2743 13.4025L26.4363 14.8057C26.6971 14.9748 27.3504 15.3791 27.5435 15.5528C27.3378 15.744 26.3333 16.3628 26.0382 16.5543L24.6987 17.4242C24.4381 17.5945 24.1 17.829 23.834 17.9734C23.6298 17.8739 23.0597 17.4922 22.8415 17.3529C22.1021 16.8722 21.3592 16.397 20.6129 15.9275C19.5931 16.6065 18.3275 17.3947 17.2835 18.0332C17.239 18.3238 17.2575 19.1186 17.2578 19.4429L17.2592 22.1945C18.3717 22.8877 19.4965 23.6549 20.612 24.3284L23.6424 22.4063C23.4391 22.1419 22.9408 21.6581 22.688 21.3696C23.9931 21.3534 25.3154 21.3689 26.6227 21.3662C26.9031 21.3608 27.1954 21.364 27.4768 21.3633C27.4828 22.5403 27.4812 23.7172 27.4725 24.8941C27.3257 25.0303 26.8341 25.3325 26.6469 25.451L25.2173 26.3531C23.6903 27.3213 22.1457 28.3438 20.612 29.2927C20.1443 29.0388 19.5116 28.6101 19.0547 28.3185L16.4706 26.6803L14.3083 25.3082C13.9752 25.0969 13.3621 24.7331 13.0722 24.4937C13.052 24.1631 13.0654 23.6888 13.0653 23.3501L13.0687 21.0477L13.0668 18.7852C13.0659 18.3663 13.0508 17.8446 13.0765 17.4332C13.9853 17.4394 14.8943 17.4391 15.8032 17.4324C15.7941 16.9032 15.7904 16.1986 15.821 15.677C16.3646 15.6539 16.9201 15.7039 17.4471 15.6658C17.4721 14.824 17.4571 13.9013 17.4537 13.0544C18.5096 12.3928 19.5449 11.6815 20.6093 11.0292ZM14.5093 20.5508C14.5578 21.171 14.4968 22.0417 14.4744 22.681C14.67 22.6656 14.0537 21.641 14.2467 21.6094C14.2473 21.8598 15.8085 20.5047 15.8219 20.7554C15.9893 20.9579 16.9293 23.9723 17.1588 24.1158C18.7367 25.1023 23.6314 23.6345 25.2173 24.6069C25.9974 24.1862 22.1856 25.9013 22.946 25.4228C23.8992 24.8232 25.7245 24.1236 26.4774 23.2656C27.5268 22.9714 26.9318 24.8436 26.9434 24.7728C25.9543 25.6513 23.669 24.7133 22.564 25.4189C21.9416 25.8164 21.2401 26.3073 20.6104 26.6719L17.3507 24.6069C16.6601 24.1694 15.9513 23.7369 15.2821 23.2656C15.4691 23.1643 15.6574 23.0653 15.8467 22.9684C15.8254 22.2674 15.7815 21.2399 15.8171 20.5404C16.0553 20.6185 15.8401 18.8478 16.0715 18.9328C15.9966 18.7723 16.405 20.4813 16.317 20.3288C15.932 19.6623 14.8287 23.8026 14.4744 23.1181C14.2556 23.448 14.0755 21.8433 13.874 22.1945C13.6314 22.6172 13.8274 21.0254 13.7575 20.7554C14.0078 20.669 14.2473 20.6012 14.5093 20.5508ZM18.154 13.7608C18.287 13.8783 18.6561 14.1569 18.6829 14.3091C18.6719 14.3324 18.6608 14.3556 18.6497 14.3789C18.3486 14.5713 18.0256 14.7385 17.7261 14.9368C17.7248 15.2253 17.823 13.4367 17.8344 13.7195L21.655 13.482C21.9102 13.3102 18.9519 15.0473 19.1959 14.9529C19.2229 15.2203 18.8992 14.1142 18.9526 14.3789C19.2813 13.7631 20.0718 14.332 20.3601 13.7195L20.3431 13.6813C20.2659 13.671 20.282 13.6681 20.2071 13.6771C19.5327 13.7233 18.7816 13.7095 18.154 13.7608ZM17.6603 15.9275C17.1444 15.9376 16.5935 15.955 16.0777 15.9361C16.1101 16.3955 16.0368 15.4464 16.0715 15.8782C16.2765 15.5274 16.8728 16.0721 17.1895 15.8202C17.4739 15.5904 17.778 15.9944 17.6603 15.9275ZM25.2943 15.6114C25.3803 15.5797 23.3308 15.8299 23.3682 15.7621C22.8951 15.7115 24.4154 15.4934 23.9568 15.4262C23.7928 15.4022 23.3498 15.0879 23.1836 14.9917C22.5388 14.6185 26.3049 15.9385 25.6631 15.7621C26.4416 16.489 23.4384 14.9035 24.3097 15.5298C24.4233 15.6115 23.7156 15.589 23.8492 15.6386C24.2586 15.6959 24.8872 15.652 25.2943 15.6114Z" fill="black"/>
<path d="M23.8618 23.928C24.1139 23.6823 24.5759 23.1038 24.7821 22.8164C24.6593 22.9329 23.9653 23.6254 23.8992 23.7257C23.8876 23.7964 23.8786 23.8581 23.8618 23.928Z" fill="black"/>
<path d="M35.977 18.7706L35.9994 18.7922C36.0215 18.9114 35.0608 23.289 34.9496 23.838C34.6297 23.5397 34.2762 23.0701 34.0074 22.7179C33.8397 22.8701 33.4767 23.3047 33.3016 23.5002C32.8847 23.9726 32.4544 24.4323 32.011 24.8789C29.9909 26.9226 27.186 29.2956 24.6736 30.6879C24.6674 30.4124 24.6659 30.137 24.6684 29.8615C24.3772 29.8599 24.0865 29.8607 23.7955 29.8475C23.7909 30.1584 23.7927 30.469 23.8009 30.7796C24.0558 30.8036 24.2871 30.807 24.5407 30.7743C24.2345 30.9846 23.8419 31.1896 23.5097 31.3692C22.154 32.1043 20.736 32.7121 19.2731 33.1852C19.2645 32.9139 19.2608 32.6425 19.262 32.3712C18.8957 32.4444 18.5233 32.5284 18.1575 32.6072C18.1598 32.965 18.1648 33.3201 18.1504 33.6774C17.8866 33.7432 17.3331 33.8146 17.0544 33.8473C17.0464 33.5536 17.0214 33.0675 17.046 32.7919L16.5327 32.8572C16.3361 32.8725 16.1487 32.8833 15.9541 32.9189C15.9647 32.5403 15.9627 32.142 15.9673 31.7618C16.3261 31.7391 16.6844 31.7083 17.0419 31.6693C17.0289 31.33 17.0363 30.924 17.0309 30.5778C17.3269 30.5035 17.8572 30.4342 18.1742 30.3829C18.1864 30.7398 18.1791 31.1382 18.1796 31.4986C18.493 31.39 18.9501 31.2794 19.2759 31.2106C19.262 30.9021 19.2696 30.5309 19.2687 30.2177C19.443 30.1378 19.7951 30.0332 19.9878 29.9666C20.3481 29.8386 20.707 29.7066 21.0645 29.5706C21.7141 29.3238 22.2469 29.0474 22.8711 28.7845C22.8667 29.0556 22.8685 29.3267 22.8765 29.5978L23.7064 29.5933C23.6974 29.3061 23.7054 29.0434 23.7134 28.7568C23.3912 28.7294 23.2228 28.7312 22.9015 28.7647C26.7889 26.8317 29.5519 24.5207 32.5036 21.3285C32.1354 21.0767 31.6842 20.8114 31.2988 20.5593C32.5489 20.1397 33.7898 19.5801 35.0353 19.1392C35.3358 19.0327 35.6904 18.903 35.977 18.7706ZM17.0485 31.683C17.0469 31.8487 17.0192 32.6449 17.079 32.7563L17.1293 32.7719C17.4781 32.6947 17.7944 32.6499 18.1456 32.5917C18.1404 32.3514 18.1543 31.7331 18.1279 31.5397C18.0778 31.5263 18.097 31.5234 18.0706 31.5299C17.7538 31.5742 17.3513 31.6514 17.0485 31.683ZM28.3929 26.0134C28.593 26.0126 28.7495 26.0118 28.9478 25.9921L28.9643 25.4275C28.7781 25.4204 28.5842 25.4098 28.3988 25.4098C28.3782 25.6361 28.3746 25.7845 28.3929 26.0134ZM31.0951 24.1771C30.9465 24.2809 30.622 24.5987 30.4748 24.7348C30.2198 24.9702 29.9433 25.2133 29.6979 25.4554C29.7921 25.4997 29.8071 25.4778 29.9278 25.443C30.2291 25.1474 30.5324 24.9007 30.8319 24.5846C30.8741 24.3947 30.9985 24.4037 31.0951 24.1771ZM20.2169 31.8466C20.2066 31.6651 20.2185 31.1564 20.1966 31.0352C20.1429 31.0157 20.1649 31.0157 20.1324 31.0191C19.8451 31.1134 19.6018 31.1669 19.3075 31.2314C19.3058 31.4038 19.2739 32.0007 19.3581 32.0945L19.4468 32.1009C19.7013 31.9955 19.9539 31.9251 20.2169 31.8466ZM22.2585 31.3608L22.6896 31.3624L22.6898 30.9153C22.5472 30.915 22.3968 30.9124 22.2549 30.9158C22.2549 31.0618 22.2518 31.2159 22.2585 31.3608ZM26.5271 28.5771C26.7763 28.5855 27.0256 28.5837 27.2746 28.5718C27.2756 28.4428 27.2918 27.8929 27.2522 27.8178C27.1693 27.8097 27.0928 27.8018 27.0093 27.7981C26.8999 27.8007 26.7694 27.7923 26.6581 27.7883L26.559 27.8094C26.483 27.9345 26.5227 28.4043 26.5271 28.5771ZM21.765 29.8865C21.5827 29.8765 21.3807 29.8607 21.2002 29.8657C21.1994 30.0641 21.1929 30.2983 21.2062 30.4927L21.773 30.4898L21.765 29.8865ZM24.79 27.8631C24.7828 28.0897 24.773 28.2694 24.7969 28.4962L25.4414 28.4896C25.4399 28.2855 25.4427 28.0613 25.4355 27.8592C25.2205 27.8545 25.0052 27.8558 24.79 27.8631Z" fill="black"/>
<path d="M33.3486 21.7938L33.3772 21.8316C33.2739 21.9346 33.1858 22.0448 33.0895 22.155C32.4476 22.8902 31.8087 23.6309 31.1166 24.3177C31.0347 24.3989 30.9232 24.5189 30.8315 24.5848C30.8738 24.3949 30.9981 24.4039 31.0947 24.1773L31.0834 24.1622C31.1284 24.0908 31.5937 23.6387 31.6818 23.5508C32.0456 23.1861 32.4046 22.8165 32.7589 22.4421C32.934 22.2573 33.1998 21.9894 33.3486 21.7938Z" fill="black"/>
<path d="M28.7415 26.2853C28.8316 26.1826 29.6038 25.5029 29.6981 25.4554C29.7923 25.4997 29.8072 25.4778 29.928 25.4431C29.7882 25.5916 29.069 26.234 28.9001 26.3404C28.7492 26.3691 28.7067 26.4753 28.6284 26.4721C28.6678 26.397 28.6941 26.3559 28.7415 26.2853Z" fill="black"/>
<path d="M29.6978 25.4554C29.9431 25.2133 30.2197 24.9702 30.4746 24.7348C30.6219 24.5987 30.9464 24.2809 31.0949 24.1771C30.9984 24.4037 30.874 24.3947 30.8318 24.5846C30.5323 24.9007 30.229 25.1474 29.9277 25.443C29.8069 25.4778 29.792 25.4997 29.6978 25.4554Z" fill="black"/>
<path d="M27.3076 27.398C27.5193 27.2523 27.7204 27.0873 27.9362 26.9501C27.9704 26.9524 28.0044 26.9548 28.0384 26.9569L28.1126 26.9693C27.9725 27.1034 27.6787 27.3413 27.5162 27.4601C27.4214 27.4074 27.4104 27.3932 27.3076 27.398Z" fill="black"/>
<path d="M27.3074 27.398C27.4101 27.3933 27.4212 27.4075 27.516 27.4602C27.3921 27.55 27.0571 27.7234 27.0089 27.7982C26.8995 27.8008 26.769 27.7924 26.6577 27.7885C26.8225 27.7721 26.8418 27.7966 26.969 27.6707C27.071 27.5698 27.1897 27.4792 27.3074 27.398Z" fill="black"/>
<path d="M28.7408 26.2853C28.6934 26.3559 28.6672 26.397 28.6278 26.4721C28.706 26.4753 28.7485 26.3691 28.8994 26.3404C28.6375 26.5881 28.4014 26.759 28.1122 26.9693L28.0381 26.9569C28.1383 26.9039 28.302 26.7459 28.363 26.6494C28.4699 26.4811 28.5858 26.4023 28.7408 26.2853Z" fill="black"/>
<path d="M33.8716 21.2128C33.7735 21.3724 33.5157 21.7047 33.3777 21.8315L33.3491 21.7937C33.474 21.6292 33.7246 21.3592 33.8716 21.2128Z" fill="black"/>
<path d="M10.8066 23.1357C10.8244 23.3283 10.5639 24.2173 10.502 24.4621C10.0562 26.2248 10.1449 28.1233 11.5382 29.4335C12.2722 30.1237 12.9944 30.36 13.9445 30.6059C13.9619 30.8514 13.961 31.0666 13.9605 31.3119C13.5977 31.2893 13.3036 31.2808 12.9453 31.1994C12.2528 31.0334 11.7292 30.8337 11.1352 30.4119C10.4444 29.9211 9.81523 29.0562 9.67247 28.1955C9.47131 28.1886 9.2476 28.1968 9.04466 28.1997C9.01637 26.3494 9.82707 24.6374 10.8066 23.1357Z" fill="black"/>
<path d="M15.353 13.5267C15.894 13.5433 16.4769 13.5262 17.0243 13.5283C17.0291 14.1022 17.0293 14.6761 17.0251 15.25C16.4725 15.2571 15.9099 15.2531 15.3566 15.254C15.3245 14.8132 15.344 13.9804 15.353 13.5267Z" fill="black"/>
<path d="M13.8622 15.4773C14.3721 15.4853 14.8806 15.4768 15.3943 15.4863C15.415 15.9823 15.4014 16.5557 15.3997 17.0569C14.9309 17.0645 14.3195 17.0705 13.8596 17.0414C13.8546 16.5201 13.8555 15.9987 13.8622 15.4773Z" fill="black"/>
<path d="M12.4144 14.0627C12.8119 14.041 13.2168 14.0503 13.6147 14.0577C13.6217 14.4613 13.6191 14.865 13.6072 15.2685C13.28 15.2904 12.7811 15.2655 12.4188 15.2755C12.4013 14.915 12.4018 14.4238 12.4144 14.0627Z" fill="black"/>
<path d="M13.8571 12.007C14.2033 11.9801 14.679 11.9869 15.027 12.0053C15.0026 12.3372 15.0136 12.8237 15.0132 13.1635L13.8671 13.1598C13.8458 12.8083 13.8568 12.3658 13.8571 12.007Z" fill="black"/>
<path d="M15.4155 30.6922C15.5935 30.6796 15.7808 30.6804 15.96 30.6783C15.9326 30.9412 15.9516 31.4858 15.9556 31.7629C15.7672 31.7806 15.5732 31.7801 15.3836 31.7827L14.8366 31.7772C14.8107 31.4692 14.7966 31.0023 14.8361 30.6978C15.0292 30.7009 15.2224 30.6991 15.4155 30.6922Z" fill="black"/>
<path d="M15.7157 32.9575C15.8147 32.9472 15.826 32.9488 15.926 32.9585C15.9411 33.1698 15.9142 33.7033 15.9087 33.9378C15.6835 33.9786 15.3379 33.9892 15.1072 33.9984C15.0288 34.0015 15.0045 34.0005 14.9265 33.9918C14.858 33.9125 14.8892 33.1574 14.8908 32.9935L15.7157 32.9575Z" fill="black"/>
<path d="M12.1053 31.3285C12.4018 31.3298 12.6982 31.3335 12.9947 31.3388C13.0168 31.568 13.009 31.985 13.0105 32.2306C12.7098 32.2327 12.409 32.2285 12.1085 32.2185C12.0743 31.9229 12.0732 31.6244 12.1053 31.3285Z" fill="black"/>
<path d="M14.5359 31.8469C14.5662 31.8495 14.6038 31.8619 14.6345 31.8698C14.7187 32.0102 14.6692 32.515 14.6601 32.6986C14.4444 32.7113 14.2202 32.7047 14.0036 32.702C13.906 32.6968 13.9448 32.7144 13.875 32.667C13.79 32.4475 13.8341 32.1006 13.8486 31.8558C14.0884 31.8669 14.297 31.8569 14.5359 31.8469Z" fill="black"/>
<path d="M12.2634 11.0021L13.0779 11C13.0861 11.2794 13.0856 11.5589 13.0766 11.8383C12.8674 11.8523 12.4861 11.8404 12.2645 11.8399C12.2392 11.561 12.2494 11.2811 12.2634 11.0021Z" fill="black"/>
<path d="M12.875 33.0782C13.1278 33.0776 13.3732 33.0745 13.6258 33.0927C13.6326 33.3343 13.6486 33.6135 13.6256 33.8512C13.4352 33.8762 13.0751 33.8554 12.882 33.843C12.8758 33.5914 12.8771 33.3306 12.875 33.0782Z" fill="black"/>
<path d="M9.81015 29.7403C9.93679 29.7303 10.0994 29.748 10.2289 29.7572C10.24 29.9566 10.3019 30.3687 10.1627 30.5033L10.0257 30.4952C9.828 30.4944 9.71094 30.4909 9.51745 30.5239C9.50533 30.263 9.50386 30.013 9.50244 29.7525L9.81015 29.7403Z" fill="black"/>
<path d="M10.7921 32.1805C11.0067 32.1868 11.2457 32.1813 11.4623 32.1813C11.4679 32.41 11.4689 32.6386 11.4651 32.8673C11.2494 32.8576 11.0113 32.8649 10.7937 32.8673C10.7868 32.645 10.7917 32.4042 10.7921 32.1805Z" fill="black"/>
<path d="M10.6375 30.8665C10.8482 30.8575 11.0041 30.8609 11.2154 30.8707C11.2147 31.0685 11.2127 31.2661 11.2094 31.464C11.0213 31.4671 10.8307 31.4664 10.6423 31.4671C10.6333 31.2698 10.6368 31.0646 10.6375 30.8665Z" fill="black"/>
<path d="M9.11714 28.6839C9.56204 28.6486 9.60427 28.8122 9.48737 29.2248L9.43213 29.2504L9.02076 29.2548C9.0161 29.1015 8.97605 28.8773 9.02331 28.7379C9.03816 28.6942 9.05732 28.7034 9.11714 28.6839Z" fill="black"/>
</svg>
